<mxfile host="app.diagrams.net" modified="2021-08-30T03:30:05.359Z" agent="5.0 (Windows NT 10.0; Win64; x64) AppleWebKit/537.36 (KHTML, like Gecko) Chrome/92.0.4515.159 Safari/537.36" etag="5f2-byJHwmBlMk-4eoK0" version="15.0.3" type="github">
  <diagram id="2z5CUgGZHuWxxsyof4mT" name="第 1 页">
    <mxGraphModel dx="2092" dy="634" grid="1" gridSize="10" guides="1" tooltips="1" connect="1" arrows="1" fold="1" page="1" pageScale="1" pageWidth="827" pageHeight="1169" math="0" shadow="0">
      <root>
        <mxCell id="0" />
        <mxCell id="1" parent="0" />
        <mxCell id="qLPg8TqJx2OJkzEQIvHe-3" value="" style="edgeStyle=orthogonalEdgeStyle;rounded=0;orthogonalLoop=1;jettySize=auto;html=1;strokeWidth=2;entryX=0.5;entryY=0;entryDx=0;entryDy=0;" edge="1" parent="1" source="qLPg8TqJx2OJkzEQIvHe-1" target="qLPg8TqJx2OJkzEQIvHe-4">
          <mxGeometry relative="1" as="geometry">
            <mxPoint x="115" y="200" as="targetPoint" />
          </mxGeometry>
        </mxCell>
        <mxCell id="qLPg8TqJx2OJkzEQIvHe-5" value="AbstractAutowireCapableBeanFactory#&lt;br&gt;createBean" style="edgeLabel;html=1;align=center;verticalAlign=middle;resizable=0;points=[];" vertex="1" connectable="0" parent="qLPg8TqJx2OJkzEQIvHe-3">
          <mxGeometry x="-0.22" relative="1" as="geometry">
            <mxPoint as="offset" />
          </mxGeometry>
        </mxCell>
        <mxCell id="qLPg8TqJx2OJkzEQIvHe-1" value="createBean" style="rounded=1;whiteSpace=wrap;html=1;fillColor=#66FF66;strokeWidth=2;" vertex="1" parent="1">
          <mxGeometry x="20" y="70" width="190" height="50" as="geometry" />
        </mxCell>
        <mxCell id="qLPg8TqJx2OJkzEQIvHe-7" value="" style="edgeStyle=orthogonalEdgeStyle;rounded=0;orthogonalLoop=1;jettySize=auto;html=1;strokeWidth=2;" edge="1" parent="1" source="qLPg8TqJx2OJkzEQIvHe-4" target="qLPg8TqJx2OJkzEQIvHe-6">
          <mxGeometry relative="1" as="geometry" />
        </mxCell>
        <mxCell id="qLPg8TqJx2OJkzEQIvHe-4" value="resolveBeforeInstantiation(beanName,mbdToUse)&lt;br&gt;第一个bean后置处理器，这里会解析aop切面信息进行缓存，&lt;b&gt;是aop和事务的关键&lt;/b&gt;" style="rounded=0;whiteSpace=wrap;html=1;strokeWidth=2;fillColor=#FFF2CC;" vertex="1" parent="1">
          <mxGeometry x="-30" y="220" width="290" height="60" as="geometry" />
        </mxCell>
        <mxCell id="qLPg8TqJx2OJkzEQIvHe-10" value="" style="edgeStyle=orthogonalEdgeStyle;rounded=0;orthogonalLoop=1;jettySize=auto;html=1;strokeWidth=2;" edge="1" parent="1" source="qLPg8TqJx2OJkzEQIvHe-6" target="qLPg8TqJx2OJkzEQIvHe-9">
          <mxGeometry relative="1" as="geometry" />
        </mxCell>
        <mxCell id="qLPg8TqJx2OJkzEQIvHe-6" value="applyBeanPostProcessorsBeforeInstantiation(targetType,beanName)" style="rounded=0;whiteSpace=wrap;html=1;strokeWidth=2;fillColor=#FFF2CC;" vertex="1" parent="1">
          <mxGeometry x="-80" y="370" width="390" height="50" as="geometry" />
        </mxCell>
        <mxCell id="qLPg8TqJx2OJkzEQIvHe-8" value="后置处理器的第一次调用，一共有9次调用。&lt;br&gt;如果bean实现了InstantiationAwareBeanPostProcessor并也实现了postProcessBeforeInstantiation方法，则会在bean创建之前先执行InstantiationAwareBeanPostProcessor接口中的postProcessBeforeInstantiation方法" style="shape=note;strokeWidth=2;fontSize=14;size=20;whiteSpace=wrap;html=1;fillColor=#fff2cc;strokeColor=#d6b656;fontColor=#666600;rounded=0;verticalAlign=middle;" vertex="1" parent="1">
          <mxGeometry x="-560" y="355" width="460" height="80" as="geometry" />
        </mxCell>
        <mxCell id="qLPg8TqJx2OJkzEQIvHe-13" value="" style="edgeStyle=orthogonalEdgeStyle;rounded=0;orthogonalLoop=1;jettySize=auto;html=1;strokeWidth=2;" edge="1" parent="1" source="qLPg8TqJx2OJkzEQIvHe-9" target="qLPg8TqJx2OJkzEQIvHe-12">
          <mxGeometry relative="1" as="geometry" />
        </mxCell>
        <mxCell id="qLPg8TqJx2OJkzEQIvHe-9" value="ibp.postProcessBeforeInstantiation(beanClass,beanName);" style="whiteSpace=wrap;html=1;rounded=0;strokeWidth=2;fillColor=#FFF2CC;" vertex="1" parent="1">
          <mxGeometry x="-80" y="480" width="390" height="60" as="geometry" />
        </mxCell>
        <mxCell id="qLPg8TqJx2OJkzEQIvHe-11" value="在这里AOP通过@EnableAspectJAutoProxy注解为我们的容器导入了AnnotationAwareAspectJAutoProxyCreator&lt;br&gt;通过@事务注解@EnableTransactionManagement注解为我们导入了InfrastructureAdvisorAutoProxyCreator；他们都是实现了BeanPostProcessor接口，InstantiationAwareBeanPostProcessor进行后置处理切面" style="shape=note;strokeWidth=2;fontSize=14;size=20;whiteSpace=wrap;html=1;fillColor=#fff2cc;strokeColor=#d6b656;fontColor=#666600;rounded=0;verticalAlign=middle;" vertex="1" parent="1">
          <mxGeometry x="-540" y="460" width="440" height="110" as="geometry" />
        </mxCell>
        <mxCell id="qLPg8TqJx2OJkzEQIvHe-12" value="" style="whiteSpace=wrap;html=1;rounded=0;strokeWidth=2;fillColor=#E5CCFF;" vertex="1" parent="1">
          <mxGeometry x="-135" y="610" width="500" height="360" as="geometry" />
        </mxCell>
      </root>
    </mxGraphModel>
  </diagram>
</mxfile>
